<svg xmlns="http://www.w3.org/2000/svg" width="48" height="48" viewBox="0 0 48 48">
    <g fill="none" fill-rule="nonzero">
        <path d="M47.566 0H0v47.566h47.566z"/>
        <path fill="#212121" d="M35.02 4.39l.079.039s-.984-.187-.935.63c.63 2.302 2.637 3.197 2.745 3.247l.541.226-.03.58c-.009.119-.176 2.874-4.525 2.874-1.427 0-3.169-.296-5.196-.896-1.554-.462-3.207-.689-4.92-.689-6.011 0-10.941 2.844-10.98 2.864-7.183 4.388-8.856 13.52-9.004 20.446.04 1.368.266.847.374.522 2.145-8.934 5.215-13.018 6.583-14.484 1.397-1.318 1.968-.059 2.076.236.167 1.25 2.066 3.385 3.464 4.595.334.227 1.702 1.27 2.096 3.296.403 2.116-.384 4.517-2.352 7.154-2.667 3.581 1.24 8 3.168 9.84a37.222 37.222 0 0 0-.482-1.103c-1.24-2.784-3.326-7.448.59-10.469 3.562-2.755 4.497-5.766 4.694-7.675-.01-1.16-.246-4.349-2.175-6.819-.098-.206-.236-.698.217-1.131.433-.413.807-.217.984-.069 1.299 1.594 1.968 3.434 2.312 4.998 2.49-.314 6.051-1.958 7.645-2.745-.865-1.328-1.505-3.217-.688-5.146.344-.64.856-.885 1.357-.511.384.285.325.787.256 1.043-1.033 2.233.945 4.3 1.23 4.585.896.728 2.814 2.48 2.923 4.201a2.351 2.351 0 0 1-.778 1.9 3.478 3.478 0 0 0-.492.53c.59-.02 1.457-.363 2.017-1.013.453-.531.64-1.17.532-1.899-.089-.453-1.23-2.46-1.722-3.326-.256-.472-.453-.797-.58-1.053-.247-.708.52-1.525.52-1.525l.192-.18c2.26-2.196 3.341-5.597 3.351-5.635l.187-.66h.61c1.319 0 2.184-.078 2.745-.176.699-.217.276-.689.177-.787a7.287 7.287 0 0 0-.659-.394l-.344-.177-.089-.384c-.384-1.613-2.745-1.692-3.217-1.692h-.118l-.483.03-.265-.404c-.984-1.486-2.45-2.332-3.631-2.794zm-9.525 19.659c-.078.02-.157.04-.226.05-.413.127-.502.412-.531.6 0 .265-.01.56-.04.885 0 .285-.01.472-.01.512h-.049c-.305 2.263-1.476 5.53-5.293 8.471-.01 0-.01.01-.01-.01-1.397 3.818 1.545 7.233 1.574 7.262.905 1.014 1.535 1.633 1.968 2.007a12.746 12.746 0 0 0-.266-.708c-3.6-6.09-.62-8.846-.147-9.23 2.863-2.715 3.404-6.986 3.473-9.308-.02-.197-.098-.54-.443-.531zM38.838 18.4c-.168-.138-.482-.305-.738-.05-.276.266-.187.591-.108.768.039.07.078.138.127.217 1.23 2.184 1.83 3.335 1.92 3.926.029.197.038.393.038.59.404-.521.63-1.053.67-1.604.088-1.348-.955-2.961-1.91-3.847zM37.46 2.786a8.084 8.084 0 0 0-.364.718c.62.364 1.25.817 1.83 1.387a6.668 6.668 0 0 0-1.466-2.105z"/>
    </g>
</svg>
